<?xml version="1.0" standalone="no"?><!DOCTYPE svg PUBLIC "-//W3C//DTD SVG 1.1//EN" "http://www.w3.org/Graphics/SVG/1.1/DTD/svg11.dtd"><svg t="1541752772466" class="icon" style="" viewBox="0 0 1024 1024" version="1.1" xmlns="http://www.w3.org/2000/svg" p-id="14893" xmlns:xlink="http://www.w3.org/1999/xlink" width="200" height="200"><defs><style type="text/css"></style></defs><path d="M703.200256 723.4048c-43.209728-18.023424-145.864704-53.372928-209.004544-71.99232-5.38624-1.688576-6.232064-1.959936-6.232064-24.341504 0-18.484224 7.617536-37.09952 15.044608-52.856832 8.042496-17.117184 17.583104-45.898752 21.008384-71.721984 9.57952-11.104256 22.624256-33.007616 31.010816-74.75712 7.349248-36.793344 3.926016-50.185216-0.960512-62.749696-0.499712-1.32608-1.038336-2.632704-1.42336-3.939328-1.847296-8.6272 0.6912-53.450752 7.003136-88.225792 4.34688-23.863296-1.119232-74.604544-34.014208-116.585472-20.77696-26.533888-60.52352-59.099136-133.13024-63.633408l-39.82336 0.037888c-71.374848 4.496384-111.159296 37.061632-131.936256 63.59552-32.898048 41.979904-38.361088 92.722176-34.013184 116.564992 6.3488 34.794496 8.850432 79.618048 7.041024 88.073216-0.385024 1.478656-0.923648 2.78528-1.462272 4.11136-4.847616 12.565504-8.310784 25.956352-0.923648 62.749696 8.349696 41.749504 21.393408 63.652864 31.012864 74.75712 3.386368 25.822208 12.928 54.6048 21.008384 71.721984 5.888 12.527616 8.656896 29.570048 8.656896 53.664768 0 22.381568-0.846848 22.65088-5.886976 24.246272-65.29536 19.252224-169.22112 56.7552-207.967232 73.700352C7.522304 738.987008 0 762.600448 0 783.90784c0 21.306368 0 84.440064 0 98.368512 0 13.930496 8.291328 37.716992 38.207488 37.716992 23.00928 0 207.236096 0 290.941952 0 25.06752 0 41.227264 0 41.227264 0l7.195648 0c0 0 16.448512 0 41.882624 0 84.01408 0 267.97056 0 290.941952 0 29.915136 0 38.207488-23.786496 38.207488-37.716992 0-13.929472 0-77.063168 0-98.368512C748.603392 762.600448 733.886464 736.566272 703.200256 723.4048z" p-id="14894" fill="#ffffff"></path><path d="M866.803712 447.812608 866.803712 290.822144 827.40224 290.822144 827.40224 447.812608 670.205952 447.812608 670.205952 487.160832 827.40224 487.160832 827.40224 644.151296 866.803712 644.151296 866.803712 487.160832 1024 487.160832 1024 447.812608Z" p-id="14895" fill="#ffffff"></path></svg>