<?xml version="1.0" standalone="no"?><!DOCTYPE svg PUBLIC "-//W3C//DTD SVG 1.1//EN" "http://www.w3.org/Graphics/SVG/1.1/DTD/svg11.dtd"><svg t="1541741265460" class="icon" style="" viewBox="0 0 1024 1024" version="1.1" xmlns="http://www.w3.org/2000/svg" p-id="26749" xmlns:xlink="http://www.w3.org/1999/xlink" width="200" height="200"><defs><style type="text/css"></style></defs><path d="M506.507097 568.225495c-156.667155 0-284.129806-127.462651-284.129806-284.129806C222.411408 127.428533 349.874059 0 506.507097 0c156.633038 0 284.129806 127.428533 284.129806 284.129806 0 156.633038-127.462651 284.095689-284.129806 284.095689z m0-519.335244a235.512494 235.512494 0 0 0-235.239555 235.239555 235.512494 235.512494 0 0 0 235.239555 235.239555 235.512494 235.512494 0 0 0 235.239555-235.239555 235.444259 235.444259 0 0 0-235.239555-235.239555z" fill="#ffffff" p-id="26750"></path><path d="M38.859732 1022.669421v-27.805691c0-259.872326 211.391484-471.297928 471.26381-471.297927 62.161924 0 122.583861 11.941094 179.628174 35.447991a27.839808 27.839808 0 1 1-21.289265 51.483174 412.138335 412.138335 0 0 0-158.373026-31.251549A414.219498 414.219498 0 0 0 95.426401 966.989805h154.790698a27.805691 27.805691 0 0 1 0 55.611381H38.859732z" fill="#ffffff" p-id="26751"></path><path d="M831.884854 1023.522356c-10.405811 0-20.641034-4.435264-27.328047-11.804624-7.847005-8.597588-24.25748-21.3575-34.595056-21.3575-10.610515 0-27.839808 13.851669-34.390351 20.913973a37.358566 37.358566 0 0 1-41.384421 8.69994l-0.989405-0.477643-50.766708-28.385687-0.921171-0.648231a35.140934 35.140934 0 0 1-11.804624-42.305591c1.330579-3.275272 3.650563-10.269341 3.650563-15.796361 0-23.097488-18.798694-41.862064-41.862064-41.862065h-2.081162c-13.851669 0-24.905711-10.917572-28.112748-27.80569a262.704071 262.704071 0 0 1-4.469381-41.862065c0-18.218698 4.264676-40.906777 4.469381-41.896181 3.207037-16.888119 14.261078-27.805691 28.112748-27.805691h2.081162c23.06337 0 41.862064-18.764577 41.862064-41.827947a46.740854 46.740854 0 0 0-3.718798-15.830479 35.140934 35.140934 0 0 1 11.941094-42.305591l0.989405-0.682348 53.564337-29.409209 1.05764-0.443527a37.83621 37.83621 0 0 1 41.043246 8.495236c7.676418 8.051709 23.779836 20.026921 33.844473 20.026921 9.928167 0 25.929233-11.73639 33.571533-19.65163a37.870327 37.870327 0 0 1 41.111481-8.188178l0.989405 0.477643 51.721997 28.760979 0.989405 0.64823c13.339908 9.314053 18.389285 27.566869 11.804624 42.407943a47.764377 47.764377 0 0 0-3.650563 15.728127c0 23.06337 18.798694 41.827947 41.862064 41.827947h2.081163c13.646965 0 24.973945 11.190511 28.112747 27.839808 0.204704 0.92117 4.469381 23.643366 4.469381 41.862065s-4.264676 40.906777-4.469381 41.862064c-3.207037 16.922236-14.192843 27.805691-28.112747 27.805691h-2.081163c-23.06337 0-41.862064 18.764577-41.862064 41.862064 0 5.93643 2.729393 13.476378 3.718798 15.864597 6.516426 14.738722 1.467049 32.923302-11.872859 42.203238l-0.989405 0.716466-52.643167 29.102152-0.989405 0.443526a35.175052 35.175052 0 0 1-13.885786 2.797628h-0.068235z m-61.95722-73.113613c16.34224 0 33.605651 6.72113 51.346705 19.890451 6.175252 4.571733 11.258746 9.109349 14.909309 12.52109l35.175051-19.446925a89.387619 89.387619 0 0 1-4.162324-25.622176c0-45.785567 33.503298-84.031185 77.787699-90.888785 1.05764-7.232891 2.354101-17.672819 2.354102-25.997468s-1.228227-18.798694-2.354102-26.031586a91.912308 91.912308 0 0 1-77.787699-90.888785c0-9.62111 2.11528-18.866929 4.162324-25.622176l-34.79976-19.344573a150.730726 150.730726 0 0 1-14.670487 11.73639c-17.331645 12.214033-34.083294 18.355168-49.709069 18.355168-15.864597 0-32.786833-6.277604-50.186713-18.696342a156.598921 156.598921 0 0 1-14.806957-12.043446l-36.437396 20.061038c2.012927 6.755248 4.094089 16.001066 4.09409 25.553941 0 45.819684-33.435064 84.065303-77.787699 90.888785a199.211568 199.211568 0 0 0-2.285867 26.031586c0 8.392883 1.228227 18.730459 2.285867 25.997468a91.912308 91.912308 0 0 1 77.787699 90.888785c0 9.689345-2.11528 18.935164-4.196442 25.724528l33.537416 18.730459a156.598921 156.598921 0 0 1 14.738722-12.24815c17.672819-12.964617 34.79976-19.549277 51.005531-19.549277z" fill="#ffffff" p-id="26752"></path><path d="M770.098221 901.962018c-44.830279 0-81.301792-36.471513-81.301793-81.33591s36.437396-81.370027 81.301793-81.370028 81.370027 36.505631 81.370027 81.370028-36.505631 81.33591-81.370027 81.33591z m0-124.255614a42.953822 42.953822 0 0 0 0 85.805291 42.885587 42.885587 0 1 0 0-85.805291z" fill="#ffffff" p-id="26753"></path></svg>