<?xml version="1.0" standalone="no"?><!DOCTYPE svg PUBLIC "-//W3C//DTD SVG 1.1//EN" "http://www.w3.org/Graphics/SVG/1.1/DTD/svg11.dtd"><svg t="1541747266917" class="icon" style="" viewBox="0 0 1024 1024" version="1.1" xmlns="http://www.w3.org/2000/svg" p-id="7143" xmlns:xlink="http://www.w3.org/1999/xlink" width="200" height="200"><defs><style type="text/css"></style></defs><path d="M225.902518 311.291792c0-17.480116-14.276145-31.623231-31.881105-31.623231h-95.665826c-17.60496 0-31.871895 14.134929-31.871895 31.623231v618.668415h159.418826V311.291792z m471.16599 347.859639h-52.092426a32.090882 32.090882 0 0 0-12.586666 2.574639c-11.344373 4.844332-19.277042 16.022928-19.277042 29.056779v239.185544h159.351288V734.288712l-75.395154-75.137281zM496.799298 107.778702a31.773657 31.773657 0 0 0-28.601408-17.853623h-95.686293c-17.600867 0-31.860638 14.134929-31.860638 31.623231v112.997564c34.761712-59.039651 90.106204-104.57473 156.148339-126.767172z m3.278673 543.630395c-67.49523-21.778003-124.08918-67.859527-159.427012-127.877459v406.428569h159.427012V651.409097z m439.340144 0.115633L777.895371 490.508523c19.393699-32.69975 30.688953-70.749344 30.688953-111.456464 0-121.369232-98.705046-219.791845-220.442668-219.791845-121.728412 0-220.437551 98.414427-220.437551 219.791845 0 121.376395 98.709139 219.767286 220.437551 219.767285 40.894386 0 79.001285-11.30344 111.809505-30.589692l161.579026 161.016207a54.945403 54.945403 0 0 0 38.968523 16.089444c30.381961 0 55.090712-24.585955 55.090712-54.975079a54.639434 54.639434 0 0 0-16.171307-38.835494z m-351.280552-107.680464c-91.342358 0-165.342746-73.788563-165.342746-164.792207 0-91.045599 74.000388-164.850535 165.342746-164.850536 91.293239 0 165.364235 73.804936 165.364235 164.850536 0 91.01183-74.061786 164.792207-165.364235 164.792207z" p-id="7144" fill="#ffffff"></path></svg>