<?xml version="1.0" encoding="utf-8"?>
<!-- Generator: Adobe Illustrator 21.1.0, SVG Export Plug-In . SVG Version: 6.00 Build 0)  -->
<svg version="1.1" id="Icons" xmlns="http://www.w3.org/2000/svg" xmlns:xlink="http://www.w3.org/1999/xlink" x="0px" y="0px"
	 viewBox="0 0 48 48" style="enable-background:new 0 0 48 48;" xml:space="preserve">
<style type="text/css">
	.st0{fill:#FFFFFF;}
	.st1{fill:#F0F0F0;}
	.st2{fill:none;stroke:#45413C;stroke-linecap:round;stroke-linejoin:round;stroke-miterlimit:10;}
	.st3{fill:#FF6242;}
	.st4{fill:#FF866E;}
	.st5{fill:#FFE500;stroke:#45413C;stroke-linecap:round;stroke-linejoin:round;stroke-miterlimit:10;}
	.st6{opacity:0.15;fill:#45413C;}
	.st7{fill:#45413C;stroke:#45413C;stroke-linecap:round;stroke-linejoin:round;stroke-miterlimit:10;}
	.st8{fill:#FFAA54;}
	.st9{fill:#E0E0E0;}
	.st10{fill:#FFCEBF;stroke:#45413C;stroke-linecap:round;stroke-linejoin:round;stroke-miterlimit:10;}
	.st11{fill:#FFB59E;}
	.st12{fill:#724F3D;}
	.st13{fill:#A86C4D;}
	.st14{fill:#FFE500;}
	.st15{fill:#EBCB00;}
	.st16{fill:#FFA694;}
	.st17{fill:#FFFFFF;stroke:#45413C;stroke-linecap:round;stroke-linejoin:round;stroke-miterlimit:10;}
	.st18{fill:#DE926A;}
	.st19{fill:#FFCEBF;}
	.st20{fill:#656769;}
	.st21{fill:#525252;}
	.st22{fill:#656769;stroke:#45413C;stroke-linecap:round;stroke-linejoin:round;stroke-miterlimit:10;}
	.st23{fill:#45413C;}
	.st24{fill:#009FD9;stroke:#45413C;stroke-linecap:round;stroke-linejoin:round;stroke-miterlimit:10;}
	.st25{fill:#A86C4D;stroke:#45413C;stroke-linecap:round;stroke-linejoin:round;stroke-miterlimit:10;}
	.st26{fill:#614B44;stroke:#45413C;stroke-linecap:round;stroke-linejoin:round;stroke-miterlimit:10;}
	.st27{fill:#FF6242;stroke:#45413C;stroke-linecap:round;stroke-linejoin:round;stroke-miterlimit:10;}
	.st28{fill:#9CEB60;stroke:#45413C;stroke-linecap:round;stroke-linejoin:round;stroke-miterlimit:10;}
	.st29{fill:#9F5AE5;}
	.st30{fill:#BF8DF2;}
	.st31{fill:#FFDCD1;}
	.st32{fill:#FFF48C;}
	.st33{fill:#E5FEFF;}
	.st34{fill:#00DFEB;}
	.st35{fill:#A6FBFF;}
	.st36{fill:#FF87AF;}
	.st37{fill:#FF6196;}
	.st38{fill:#EBCB00;stroke:#45413C;stroke-linecap:round;stroke-linejoin:round;stroke-miterlimit:10;}
	.st39{fill:#00B8F0;}
	.st40{fill:#009FD9;}
	.st41{fill:#4ACFFF;}
	.st42{fill:#FFB59E;stroke:#45413C;stroke-linecap:round;stroke-linejoin:round;stroke-miterlimit:10;}
	.st43{fill:#FFB0CA;}
	.st44{fill:#FF87AF;stroke:#45413C;stroke-linecap:round;stroke-linejoin:round;stroke-miterlimit:10;}
	.st45{fill:#00B8F0;stroke:#45413C;stroke-linecap:round;stroke-linejoin:round;stroke-miterlimit:10;}
	.st46{fill:#FF866E;stroke:#45413C;stroke-linecap:round;stroke-linejoin:round;stroke-miterlimit:10;}
	.st47{fill:#DAEDF7;stroke:#45413C;stroke-linecap:round;stroke-linejoin:round;stroke-miterlimit:10;}
	.st48{fill:#DABFF5;}
	.st49{fill:#C0DCEB;}
	.st50{fill:#ADC4D9;}
	.st51{fill:#E04122;stroke:#45413C;stroke-linecap:round;stroke-linejoin:round;stroke-miterlimit:10;}
	.st52{fill:#BF8256;}
	.st53{fill:#DEA47A;}
	.st54{fill:#87898C;}
	.st55{fill:#BDBEC0;stroke:#45413C;stroke-linecap:round;stroke-linejoin:round;stroke-miterlimit:10;}
	.st56{fill:#8CA4B8;}
	.st57{fill:#FFC44D;}
	.st58{fill:#FFDB94;}
	.st59{fill:#FFC44D;stroke:#45413C;stroke-linecap:round;stroke-linejoin:round;stroke-miterlimit:10;}
	.st60{fill:#E04122;}
	.st61{fill:#724F3D;stroke:#45413C;stroke-linecap:round;stroke-linejoin:round;stroke-miterlimit:10;}
	.st62{fill:#915E3A;}
	.st63{fill:#FF8A14;}
	.st64{fill:none;stroke:#45413C;stroke-linecap:round;stroke-miterlimit:10;}
	.st65{fill:#00F5BC;}
	.st66{fill:#00DBA8;}
	.st67{fill:#627B8C;}
</style>
<g>
	<g>
		<path id="XMLID_5805_" class="st12" d="M24,7c0.8,0,1.7,0.1,2.4,0.3c1.9,0.4,4.3,1.1,6.5,0.7c0.2,2.1-0.8,3.2-0.8,3.2
			c1.1,1.6,1.8,3.5,1.8,5.6v5.1H14.2v-5.1C14.2,11.4,18.6,7,24,7z"/>
		<g id="XMLID_5803_">
			<path id="XMLID_5804_" class="st13" d="M24,7c0.8,0,1.7,0.1,2.4,0.3c1.9,0.4,4.3,1.1,6.5,0.7c0.2,1.6-0.4,2.6-0.7,3
				c-2,0.2-4.1-0.4-5.8-0.8C25.7,10,24.8,9.9,24,9.9c-5.4,0-9.8,4.4-9.8,9.8v-2.9C14.2,11.4,18.6,7,24,7z"/>
		</g>
		<path id="XMLID_5802_" class="st2" d="M24,7c0.8,0,1.7,0.1,2.4,0.3c1.9,0.4,4.3,1.1,6.5,0.7c0.2,2.1-0.8,3.2-0.8,3.2
			c1.1,1.6,1.8,3.5,1.8,5.6v5.1H14.2v-5.1C14.2,11.4,18.6,7,24,7z"/>
		<path class="st5" d="M13.1,21.2c0.1-0.7,0.7-1.3,1.4-1.5l0.6-0.2c0.9-0.2,1.5-1.1,1.5-2v-2.1c0-0.9,0.6-1.6,1.4-1.8
			c1.6,0.7,3.7,1.1,6,1.1s4.4-0.4,6-1.1c0.8,0.2,1.4,0.9,1.4,1.8v2.1c0,0.9,0.6,1.7,1.5,2l0.6,0.2c0.7,0.2,1.3,0.8,1.4,1.5
			c0.1,1.1-0.8,2-1.8,2c0,0-0.1,0-0.1,0c-0.7,4.4-4.4,7.7-9,7.7s-8.3-3.4-9-7.7c0,0-0.1,0-0.1,0C13.9,23.2,13,22.3,13.1,21.2z"/>
		<circle id="XMLID_5801_" class="st7" cx="28.7" cy="21" r="0.8"/>
		<circle id="XMLID_5800_" class="st7" cx="19.3" cy="21" r="0.8"/>
		<g id="XMLID_5791_">
			<g id="XMLID_5792_">
				<g id="XMLID_5793_">
					<g id="XMLID_5794_">
						<g id="XMLID_5795_">
							<g id="XMLID_5796_">
								<g id="XMLID_5797_">
									<path id="XMLID_5799_" class="st3" d="M26.8,25.7c0.1,0,0.3,0.1,0.3,0.2c0.1,0.1,0.1,0.2,0.1,0.4c-0.2,1.6-1.6,2.8-3.3,2.8
										c-1.7,0-3-1.2-3.3-2.8c0-0.1,0-0.3,0.1-0.4c0.1-0.1,0.2-0.2,0.3-0.2H26.8z"/>
									<path id="XMLID_5798_" class="st16" d="M24,27c1,0,1.9,0.3,2.5,0.8c-0.6,0.7-1.5,1.1-2.5,1.1s-1.9-0.4-2.5-1.1
										C22.1,27.3,23,27,24,27z"/>
								</g>
							</g>
						</g>
					</g>
				</g>
			</g>
		</g>
		<g id="XMLID_5789_">
			<path id="XMLID_5790_" class="st2" d="M26.8,25.7c0.1,0,0.3,0.1,0.3,0.2c0.1,0.1,0.1,0.2,0.1,0.4c-0.2,1.6-1.6,2.8-3.3,2.8
				c-1.7,0-3-1.2-3.3-2.8c0-0.1,0-0.3,0.1-0.4c0.1-0.1,0.2-0.2,0.3-0.2H26.8z"/>
		</g>
		<ellipse id="XMLID_5788_" class="st8" cx="29.9" cy="24.3" rx="1" ry="0.6"/>
		<ellipse id="XMLID_5787_" class="st8" cx="18.1" cy="24.3" rx="1" ry="0.6"/>
	</g>
	<path id="XMLID_5786_" class="st14" d="M16.7,10.7c0.8-0.6,0.4-2-0.7-2l-0.8,0c-0.2,0-0.3-0.1-0.3-0.3l0.2-2.3
		c0.2-1.5-1.5-2.5-2.7-1.7c-0.4,0.3-0.9,0.5-1.5,0.4c-0.7-0.1-1.2,0.4-1.4,1c-0.6,3-0.9,5.6-0.7,8.7l4.9,0.4l0.1-2.1L16.7,10.7z"/>
	<path class="st32" d="M10.5,6.7c0.6,0.1,1.2-0.1,1.7-0.4c1-0.7,2.3-0.2,2.8,0.7l0.1-0.9c0.2-1.5-1.5-2.5-2.7-1.7
		c-0.4,0.3-0.9,0.5-1.5,0.4c-0.7-0.1-1.2,0.4-1.4,1C9.6,6.3,9.5,6.7,9.4,7.1C9.7,6.9,10.1,6.7,10.5,6.7z"/>
	<path id="XMLID_5785_" class="st2" d="M16.7,10.7c0.8-0.6,0.4-2-0.7-2l-0.8,0c-0.2,0-0.3-0.1-0.3-0.3l0.2-2.3
		c0.2-1.5-1.5-2.5-2.7-1.7c-0.4,0.3-0.9,0.5-1.5,0.4c-0.7-0.1-1.2,0.4-1.4,1c-0.6,3-0.9,5.6-0.7,8.7l4.9,0.4l0.1-2.1L16.7,10.7z"/>
	<ellipse id="XMLID_5784_" class="st6" cx="24" cy="45.5" rx="15" ry="1.5"/>
	<path id="XMLID_5783_" class="st39" d="M24.2,31.2c-1.5,0-2.9,0.2-4.2,0.7c-1.9,0.7-4-0.3-4.6-2.2c-2.5-7.7-1.2-15.6-1.2-15.6H8.2
		c0,0.1-0.6,6.8,0,13.8c0.8,10.5,4,17.1,4,17.1h23.8l0-1.5C35.9,36.9,30.7,31.3,24.2,31.2z"/>
	<g id="XMLID_5781_">
		<path id="XMLID_5782_" class="st40" d="M24.2,31.2c-1.5,0-2.9,0.2-4.2,0.7c-1.9,0.7-4-0.3-4.6-2.2c-1-3.1-1.4-6.2-1.5-8.8
			c-0.1,3,0,7.6,1.5,12.1c0.6,1.9,2.7,2.9,4.6,2.2c1.3-0.5,2.7-0.7,4.2-0.7c6,0.1,10.8,4.7,11.6,10.5h0.1v-1.5
			C35.9,36.9,30.7,31.3,24.2,31.2z"/>
	</g>
	<path id="XMLID_5780_" class="st2" d="M24.2,31.2c-1.5,0-2.9,0.2-4.2,0.7c-1.9,0.7-4-0.3-4.6-2.2c-2.5-7.7-1.2-15.6-1.2-15.6H8.2
		c0,0.1-0.6,6.8,0,13.8c0.8,10.5,4,17.1,4,17.1h23.8l0-1.5C35.9,36.9,30.7,31.3,24.2,31.2z"/>
	<path class="st14" d="M24,30.9c-0.9,0-1.7-0.1-2.5-0.4v2.1c0,1.4,1.1,2.5,2.5,2.5s2.5-1.1,2.5-2.5v-2.1
		C25.7,30.7,24.9,30.9,24,30.9z"/>
	<path class="st15" d="M24,30.9c-0.9,0-1.7-0.1-2.5-0.4c0,1.4,1.2,2.5,2.5,2.5s2.5-1.1,2.5-2.5C25.7,30.7,24.9,30.9,24,30.9z"/>
	<path class="st2" d="M24,30.9c-0.9,0-1.7-0.1-2.5-0.4v2.1c0,1.4,1.1,2.5,2.5,2.5s2.5-1.1,2.5-2.5v-2.1C25.7,30.7,24.9,30.9,24,30.9
		z"/>
</g>
</svg>
