<svg height="512pt" viewBox="0 0 512 512" width="512pt" xmlns="http://www.w3.org/2000/svg"><path d="m431.664062 164.953125v-109.789063c0-30.417968-24.746093-55.164062-55.164062-55.164062h-232.96875c-3.976562 0-7.792969 1.578125-10.605469 4.394531l-128.53125 128.53125c-2.8125 2.8125-4.394531 6.628907-4.394531 10.605469v313.300781c0 30.421875 24.746094 55.167969 55.164062 55.167969h321.335938c30.417969 0 55.164062-24.746094 55.164062-55.167969v-81.960937c0-8.285156-6.714843-15-15-15v-179.917969c8.285157 0 15-6.714844 15-15zm0 0" fill="#fef4f5"/><path d="m431.664062 164.953125v-109.789063c0-30.417968-24.746093-55.164062-55.164062-55.164062h-160.667969v512h160.667969c30.417969 0 55.164062-24.746094 55.164062-55.167969v-81.960937c0-8.285156-6.714843-15-15-15v-179.917969c8.285157 0 15-6.714844 15-15zm0 0" fill="#d5eded"/><path d="m149.273438 1.140625c-5.605469-2.320313-12.058594-1.035156-16.347657 3.253906l-128.53125 128.53125c-4.289062 4.292969-5.574219 10.742188-3.253906 16.347657 2.320313 5.605468 7.792969 9.261718 13.859375 9.261718h128.53125c8.285156 0 15-6.71875 15-15v-128.535156c0-6.066406-3.652344-11.535156-9.257812-13.859375zm0 0" fill="#a8ebfa"/><g fill="#0065a3"><path d="m335.027344 377.039062h-255.761719c-8.285156 0-15-6.714843-15-15 0-8.28125 6.714844-15 15-15h255.761719c8.285156 0 15 6.71875 15 15 0 8.285157-6.714844 15-15 15zm0 0"/><path d="m352.398438 306.347656h-273.132813c-8.285156 0-15-6.714844-15-15s6.714844-15 15-15h273.132813c8.285156 0 15 6.714844 15 15s-6.714844 15-15 15zm0 0"/><path d="m352.398438 235.652344h-273.132813c-8.285156 0-15-6.714844-15-15 0-8.28125 6.714844-15 15-15h273.132813c8.285156 0 15 6.71875 15 15 0 8.285156-6.714844 15-15 15zm0 0"/><path d="m352.398438 164.960938h-144.597657c-8.285156 0-15-6.71875-15-15 0-8.285157 6.714844-15 15-15h144.597657c8.285156 0 15 6.714843 15 15 0 8.28125-6.714844 15-15 15zm0 0"/><path d="m352.398438 94.265625h-144.597657c-8.285156 0-15-6.714844-15-15 0-8.28125 6.714844-15 15-15h144.597657c8.285156 0 15 6.71875 15 15 0 8.285156-6.714844 15-15 15zm0 0"/><path d="m349.222656 417.734375h-269.957031c-8.285156 0-15 6.714844-15 15s6.714844 15 15 15h269.957031c8.285156 0 15-6.714844 15-15s-6.714844-15-15-15zm0 0"/></g><path d="m335.027344 377.039062c8.285156 0 15-6.714843 15-15 0-8.28125-6.714844-15-15-15h-119.195313v30zm0 0" fill="#005183"/><path d="m352.398438 306.347656c8.285156 0 15-6.714844 15-15s-6.714844-15-15-15h-136.566407v30zm0 0" fill="#005183"/><path d="m352.398438 235.652344c8.285156 0 15-6.714844 15-15 0-8.28125-6.714844-15-15-15h-136.566407v30zm0 0" fill="#005183"/><path d="m367.398438 149.960938c0-8.285157-6.714844-15-15-15h-136.566407v30h136.566407c8.285156 0 15-6.71875 15-15zm0 0" fill="#005183"/><path d="m367.398438 79.265625c0-8.28125-6.714844-15-15-15h-136.566407v30h136.566407c8.285156 0 15-6.714844 15-15zm0 0" fill="#005183"/><path d="m301.023438 447.734375h48.199218c8.285156 0 15-6.714844 15-15s-6.714844-15-15-15h-133.390625v30zm0 0" fill="#005183"/><path d="m477.933594 122c-6.742188-2.792969-13.839844-4.207031-21.097656-4.207031-22.394532 0-42.410157 13.371093-50.980469 34.0625l-9.226563 22.265625c-3.167968 7.65625.46875 16.429687 8.121094 19.601562l74.21875 30.742188c1.875.777344 3.820312 1.144531 5.730469 1.144531 5.886719 0 11.476562-3.488281 13.867187-9.265625l9.222656-22.265625c11.640626-28.101563-1.753906-60.433594-29.855468-72.078125zm0 0" fill="#ff4949"/><path d="m477.933594 122-36.074219 87.09375 37.109375 15.371094c1.875.777344 3.820312 1.144531 5.730469 1.144531 5.886719 0 11.476562-3.488281 13.867187-9.265625l9.222656-22.265625c11.640626-28.101563-1.753906-60.433594-29.855468-72.078125zm0 0" fill="#e80048"/><path d="m416.664062 374.871094-74.214843-30.742188c-3.675781-1.519531-7.804688-1.519531-11.480469 0-3.675781 1.523438-6.597656 4.441406-8.117188 8.117188l-9.226562 22.265625c-1.519531 3.675781-1.519531 7.804687 0 11.480469l21.738281 52.480468c1.523438 3.675782 4.445313 6.597656 8.121094 8.117188 1.835937.761718 3.789063 1.144531 5.738281 1.144531 1.953125 0 3.902344-.382813 5.742188-1.144531l52.480468-21.738282c3.671876-1.523437 6.59375-4.441406 8.117188-8.117187l9.222656-22.265625c3.167969-7.652344-.464844-16.425781-8.121094-19.597656zm0 0" fill="#fdd1a3"/><path d="m349.222656 447.734375c1.953125 0 3.902344-.382813 5.742188-1.140625l52.480468-21.742188c3.675782-1.519531 6.59375-4.441406 8.117188-8.117187l9.222656-22.265625c3.167969-7.652344-.464844-16.425781-8.121094-19.597656l-37.105468-15.371094-36.074219 87.09375c1.835937.757812 3.789063 1.140625 5.738281 1.140625zm0 0" fill="#f5a86c"/><path d="m490.445312 196.746094-74.214843-30.742188c-3.675781-1.519531-7.804688-1.519531-11.480469 0-3.675781 1.523438-6.597656 4.441406-8.121094 8.117188l-73.777344 178.125c-3.171874 7.652344.464844 16.429687 8.117188 19.601562l74.21875 30.742188c1.835938.757812 3.789062 1.140625 5.738281 1.140625s3.902344-.382813 5.738281-1.140625c3.679688-1.523438 6.597657-4.445313 8.121094-8.121094l73.78125-178.121094c3.167969-7.65625-.464844-16.429687-8.121094-19.601562zm0 0" fill="#ff9f00"/><path d="m490.445312 196.746094-37.105468-15.371094-85.261719 205.84375 37.105469 15.371094c1.839844.757812 3.789062 1.140625 5.742187 1.140625 1.949219 0 3.902344-.382813 5.738281-1.140625 3.675782-1.523438 6.597657-4.445313 8.121094-8.121094l73.78125-178.121094c3.167969-7.65625-.464844-16.429687-8.121094-19.601562zm0 0" fill="#ff641a"/><path d="m490.445312 196.746094-74.214843-30.742188c-3.675781-1.519531-7.804688-1.519531-11.480469 0-3.675781 1.523438-6.597656 4.441406-8.121094 8.117188-3.167968 7.65625.46875 16.429687 8.121094 19.601562l74.21875 30.742188c1.875.777344 3.820312 1.144531 5.730469 1.144531 5.886719 0 11.476562-3.488281 13.867187-9.265625 3.167969-7.652344-.464844-16.425781-8.121094-19.597656zm0 0" fill="#a8ebfa"/><path d="m490.445312 196.746094-37.105468-15.371094-11.480469 27.71875 37.109375 15.371094c1.875.777344 3.820312 1.144531 5.730469 1.144531 5.886719 0 11.476562-3.488281 13.867187-9.265625 3.167969-7.652344-.464844-16.425781-8.121094-19.597656zm0 0" fill="#76e2f8"/></svg>