<?xml version="1.0" standalone="no"?><!DOCTYPE svg PUBLIC "-//W3C//DTD SVG 1.1//EN" "http://www.w3.org/Graphics/SVG/1.1/DTD/svg11.dtd"><svg t="1541746799581" class="icon" style="" viewBox="0 0 1024 1024" version="1.1" xmlns="http://www.w3.org/2000/svg" p-id="2437" xmlns:xlink="http://www.w3.org/1999/xlink" width="200" height="200"><defs><style type="text/css"></style></defs><path d="M964.722 935.399l-107.358-107.358c24.331-36.741 38.664-80.697 38.664-128.061 0-128.394-104.081-232.474-232.474-232.474-128.395 0-232.474 104.081-232.474 232.474 0 128.388 104.080 232.474 232.474 232.474 47.367 0 91.319-14.338 128.061-38.662l107.358 107.357c13.359 13.36 35.223 13.36 48.582 0l17.169-17.168c13.365-13.36 13.365-35.223 0-48.583v0zM789.093 759.768c-13.75 28.814-36.937 51.999-65.751 65.752-18.181 8.681-38.295 13.947-59.788 13.947-77.039 0-139.485-62.45-139.485-139.485 0-77.032 62.447-139.485 139.485-139.485 77.038 0 139.485 62.455 139.485 139.485 0 21.494-5.264 41.609-13.948 59.788v0zM360.256 743.517h-113.706c-19.481 0-35.425-15.943-35.425-35.425 0-19.486 15.943-35.431 35.425-35.431h111.789c2.946-33.318 11.243-65.093 24.039-94.465h-135.822c-19.486 0-35.425-15.942-35.425-35.427s15.938-35.428 35.425-35.428h179.031c34.671-42.538 80.593-75.537 133.232-94.468h-312.262c-19.486 0-35.425-15.943-35.425-35.428s15.938-35.428 35.425-35.428h545.347c19.48 0 35.43 15.943 35.43 35.428s-15.948 35.428-35.43 35.428h-26.708c95.506 34.348 168.897 115.008 193.102 214.901v-509.045c0-59.045-48.311-107.349-107.352-107.349h-663.435c-59.043 0-107.347 48.306-107.347 107.349v766.489c0 59.042 48.306 107.347 107.347 107.347h389.123c-113.263-32.972-199.272-129.878-216.376-249.050v0zM246.554 176.699h545.347c19.48 0 35.43 15.943 35.43 35.425 0 19.486-15.948 35.428-35.43 35.428h-545.347c-19.486 0-35.425-15.94-35.425-35.428 0-19.481 15.938-35.425 35.425-35.425v0z" p-id="2438" fill="#ffffff"></path></svg>