<?xml version="1.0" standalone="no"?><!DOCTYPE svg PUBLIC "-//W3C//DTD SVG 1.1//EN" "http://www.w3.org/Graphics/SVG/1.1/DTD/svg11.dtd"><svg t="1541740143983" class="icon" style="" viewBox="0 0 1024 1024" version="1.1" xmlns="http://www.w3.org/2000/svg" p-id="19572" xmlns:xlink="http://www.w3.org/1999/xlink" width="200" height="200"><defs><style type="text/css"></style></defs><path d="M342.045 131.926h166.906c20.564 0 37.389 16.759 37.389 37.297v697.162c0 20.511-16.824 37.271-37.389 37.271H342.045c-20.59 0-37.389-16.759-37.389-37.271V169.223c0-20.537 16.799-37.297 37.389-37.297zM161.857 808.201c31.091 0 56.302-24.574 56.302-54.926 0-30.397-25.211-54.991-56.302-54.991-31.06 0-56.231 24.594-56.231 54.991 0 30.351 25.172 54.926 56.231 54.926z m263.628 0c31.059 0 56.257-24.574 56.257-54.926 0-30.397-25.198-54.991-56.257-54.991-31.111 0-56.257 24.594-56.257 54.991 0.001 30.351 25.146 54.926 56.257 54.926zM184.99 604.912c21.706 0 39.406-17.649 39.406-39.225V370.259c0-21.55-17.7-39.153-39.406-39.153h-62.949c-21.614 0-39.334 17.604-39.334 39.153v195.428c0 21.576 17.72 39.225 39.334 39.225h62.949z m266.816 0c21.634 0 39.335-17.649 39.335-39.225V370.259c0-21.55-17.701-39.153-39.335-39.153h-62.975c-21.692 0-39.36 17.604-39.36 39.153v195.428c0 21.576 17.668 39.225 39.36 39.225h62.975zM74.269 131.926H241.15c20.563 0 37.465 16.759 37.465 37.297v697.162c0 20.511-16.902 37.271-37.465 37.271H74.269c-20.563 0-37.413-16.759-37.413-37.271V169.223c-0.001-20.537 16.849-37.297 37.413-37.297z m529.93 22.718l161.682-41.009c19.947-5.076 40.459 7.036 45.547 26.95l173.009 675.522c5.063 19.901-7.081 40.309-27.048 45.345l-161.656 41.062c-19.973 5.063-40.464-7.036-45.578-26.937L577.172 200.029c-5.064-19.902 7.107-40.296 27.027-45.385z m289.118 573.368c0-30.352-25.172-54.991-56.237-54.991-31.104 0-56.303 24.64-56.303 54.991s25.198 54.991 56.303 54.991c31.066 0 56.237-24.639 56.237-54.991zM851.022 532.22l-49.084-189.262c-5.388-20.881-27.003-33.558-47.955-28.171l-60.95 15.702c-21.004 5.342-33.7 26.84-28.293 47.728l49.059 189.21c5.406 20.888 27.027 33.564 47.961 28.177l60.949-15.656c20.998-5.387 33.721-26.892 28.313-47.728z" p-id="19573" fill="#ffffff"></path></svg>