<?xml version="1.0" standalone="no"?><!DOCTYPE svg PUBLIC "-//W3C//DTD SVG 1.1//EN" "http://www.w3.org/Graphics/SVG/1.1/DTD/svg11.dtd"><svg t="1541740628915" class="icon" style="" viewBox="0 0 1024 1024" version="1.1" xmlns="http://www.w3.org/2000/svg" p-id="23856" xmlns:xlink="http://www.w3.org/1999/xlink" width="200" height="200"><defs><style type="text/css"></style></defs><path d="M944.401017 778.135852H244.934254c-109.72757 0-198.997457-89.269887-198.997458-198.997458s89.269887-198.997457 198.997458-198.997457h699.466763v28.082819H244.934254c-94.291319 0-171.100618 76.809299-171.100618 171.100617s76.809299 171.100618 171.100618 171.100618h699.466763v27.710861z" fill="#ffffff" p-id="23857"></path><path d="M332.716309 142.645841c0 40.915365 33.290229 74.019615 74.019615 74.019615 40.915365 0 74.019615-33.290229 74.019615-74.019615s-33.290229-74.019615-74.019615-74.019615-74.019615 33.290229-74.019615 74.019615zM461.599709 230.241918l-52.074101 136.694515h131.115148c18.969851 0 32.732292-21.945514 24.549219-38.31166l-40.915365-81.83073c-5.579368-8.183073-13.762441-16.366146-24.54922-16.366146h-38.125681v-0.185979zM316.722121 230.241918c-10.786778 0-18.969851 8.183073-24.549219 16.366146l-40.915365 81.83073c-8.183073 16.366146 5.579368 38.31166 24.549219 38.31166h131.115147L355.21976 230.055939h-38.497639v0.185979z" fill="#ffffff" p-id="23858"></path><path d="M673.057755 142.645841c0 40.915365 33.290229 74.019615 74.019615 74.019615 40.915365 0 74.019615-33.290229 74.019615-74.019615s-33.290229-74.019615-74.019615-74.019615-74.019615 33.290229-74.019615 74.019615zM801.941155 230.241918l-52.074101 136.694515h131.115147c18.969851 0 32.732292-21.945514 24.549219-38.31166l-40.915365-81.83073c-5.579368-8.183073-13.762441-16.366146-24.549219-16.366146h-38.125681v-0.185979zM657.063567 230.241918c-10.786778 0-18.969851 8.183073-24.549219 16.366146l-40.915365 81.83073c-8.183073 16.366146 5.579368 38.31166 24.549219 38.31166h131.115147L695.561206 230.055939h-38.497639v0.185979z" fill="#ffffff" p-id="23859"></path><path d="M332.716309 588.065383c0 40.915365 33.290229 74.019615 74.019615 74.019615 40.915365 0 74.019615-33.290229 74.019615-74.019615s-33.290229-74.019615-74.019615-74.019615c-40.729386-0.185979-74.019615 33.10425-74.019615 74.019615zM461.599709 675.475481l-52.074101 136.694515h131.115148c18.969851 0 32.732292-21.945514 24.549219-38.31166l-40.915365-81.83073c-5.579368-8.183073-13.762441-16.366146-24.54922-16.366146h-38.125681v-0.185979zM316.722121 675.475481c-10.786778 0-18.969851 8.183073-24.549219 16.366146l-40.915365 81.83073c-8.183073 16.366146 5.579368 38.31166 24.549219 38.31166h131.115147L355.21976 675.289502h-38.497639v0.185979z" fill="#ffffff" p-id="23860"></path><path d="M322.11551 675.475481h166.265166v136.694515h-166.265166z" fill="#ffffff" p-id="23861"></path><path d="M673.057755 588.065383c0 40.915365 33.290229 74.019615 74.019615 74.019615 40.915365 0 74.019615-33.290229 74.019615-74.019615s-33.290229-74.019615-74.019615-74.019615c-40.729386-0.185979-74.019615 33.10425-74.019615 74.019615zM801.941155 675.475481l-52.074101 136.694515h131.115147c18.969851 0 32.732292-21.945514 24.549219-38.31166l-40.915365-81.83073c-5.579368-8.183073-13.762441-16.366146-24.549219-16.366146h-38.125681v-0.185979zM657.063567 675.475481c-10.786778 0-18.969851 8.183073-24.549219 16.366146l-40.915365 81.83073c-8.183073 16.366146 5.579368 38.31166 24.549219 38.31166h131.115147L695.561206 675.289502h-38.497639v0.185979z" fill="#ffffff" p-id="23862"></path><path d="M676.219397 675.475481h156.036324v136.694515h-156.036324z" fill="#ffffff" p-id="23863"></path></svg>