<?xml version="1.0" standalone="no"?><!DOCTYPE svg PUBLIC "-//W3C//DTD SVG 1.1//EN" "http://www.w3.org/Graphics/SVG/1.1/DTD/svg11.dtd"><svg t="1541752000623" class="icon" style="" viewBox="0 0 1024 1024" version="1.1" xmlns="http://www.w3.org/2000/svg" p-id="9504" xmlns:xlink="http://www.w3.org/1999/xlink" width="200" height="200"><defs><style type="text/css"></style></defs><path d="M334.628027 441.605172c0-11.128242-0.109899-22.590061 0.020687-34.048 0.359434-31.212606 18.563879-57.359515 47.737536-67.250425 7.88299-2.672485 16.602505-3.930505 24.954828-3.997737 46.070949-0.374949 92.147071-0.262465 138.221899-0.155151 41.57802 0.098263 72.282505 30.762667 72.679434 72.419555 0.104727 11.134707 0.015515 22.272 0.015515 33.728647h35.558142c0-6.821495-0.23402-13.397333 0.051717-19.951192 0.455111-10.494707-0.099556-21.275152 2.146263-31.407839 7.11499-32.068525 34.477253-53.943596 67.545212-54.689616 20.434747-0.461576 40.883717-0.118949 61.327515-0.124121 26.889051-0.006465 53.780687-0.133172 80.667151 0.034909 34.871596 0.215919 62.882909 22.727111 70.181495 56.331636a70.286222 70.286222 0 0 1 1.55798 14.487273c0.134465 34.280727 0.078869 68.560162 0.07499 102.842182 0 0.928323-0.087919 1.856646-0.169374 3.466343h-6.47499c-197.03596 0-394.070626 0.069818-591.106585-0.063353-36.958384-0.024566-71.237818 8.745374-102.206061 29.14004-31.080727 20.468364-53.638465 48.068525-67.572364 82.606546-10.846384 26.885172-14.639838 54.882263-11.76307 83.640889 3.044848 30.426505 13.368889 58.348606 30.928161 83.448242 19.006061 27.164444 43.742384 47.511273 74.026667 60.984889 22.529293 10.024081 46.213172 14.819556 70.946909 15.003151 1.073131-6.116848 1.732525-12.188444 3.227152-18.044121 7.720081-30.223515 34.867717-51.944727 65.900606-52.516202 19.176727-0.35297 38.366384-0.115071 57.550868-0.139636 2.195394-0.001293 4.390788 0 6.584889-0.151273-66.300121-8.534626-101.871192-63.569455-96.527515-116.818747 5.61002-55.894626 51.942141-96.56501 106.613657-95.793132 56.458343 0.793859 101.948768 44.51297 105.153939 99.017697 3.209051 54.557737-34.817293 106.077091-96.536566 113.748041h15.442748c13.99596 0 27.993212-0.112485 41.986586 0.117656 2.212202 0.033616 4.967434 1.048566 6.51507 2.576808 22.035394 21.775515 43.929859 43.693253 65.759677 65.673051 1.292929 1.300687 2.48501 3.421091 2.49794 5.169131 0.165495 21.85697 0.103434 43.716525 0.085333 65.572202 0 0.603798-0.151273 1.206303-0.30901 2.408727h-5.079919c-92.150949 0-184.316121 1.009778-276.44897-0.268929-101.951354-1.417051-177.203717-48.535273-224.471919-138.802424-20.547232-39.235232-27.958303-81.785535-24.790627-126.037333 4.342949-60.72501 27.814788-113.031758 70.220283-156.547879 36.955798-37.925495 81.795879-61.619717 134.041859-70.666344 14.020525-2.426828 28.315152-3.281455 43.234262-4.944161z" p-id="9505" fill="#ffffff"></path><path d="M654.253078 938.488242c-0.134465-0.703354-0.407273-1.450667-0.404687-2.199272 0.129293-24.684606-0.377535-49.395071 0.593455-74.044768 1.246384-31.628929 27.309253-59.570424 58.810181-63.767273 9.446141-1.25802 19.117253-0.974869 28.688809-1.078303 14.762667-0.15903 29.526626-0.041374 44.289292-0.197818-67.677091-8.904404-100.998465-65.477818-96.413737-115.225859 5.121293-55.568808 50.261333-97.192081 105.609051-97.560565 53.91903-0.360727 100.147717 40.90699 105.870222 95.268202 5.665616 53.806545-30.519596 109.032727-95.833212 117.675959 17.273535 0 34.550949 0.193939 51.823192-0.060767 13.972687-0.206869 27.66998 0.64 40.361373 7.233939 23.780848 12.353939 37.837576 31.914667 39.258505 58.594263 1.326545 24.926384 0.285737 49.979475 0.285738 75.362262H654.253078zM476.330492 300.324202c-58.776566-0.102141-106.166303-47.57204-106.051232-106.233535 0.113778-58.731313 47.625051-106.220606 106.221899-106.171475 58.52703 0.049131 106.149495 47.769859 106.122343 106.343434-0.024566 58.616242-47.678061 106.163717-106.29301 106.061576zM901.770169 194.284606c-0.078869 58.745535-47.657374 106.229657-106.252929 106.040889-58.786909-0.190061-106.256808-47.707798-106.148202-106.256808 0.10602-58.546424 47.890101-106.228364 106.368-106.145616 58.620121 0.082747 106.117172 47.725899 106.033131 106.361535z" p-id="9506" fill="#ffffff"></path></svg>