<?xml version="1.0" standalone="no"?><!DOCTYPE svg PUBLIC "-//W3C//DTD SVG 1.1//EN" "http://www.w3.org/Graphics/SVG/1.1/DTD/svg11.dtd"><svg t="1541752031513" class="icon" style="" viewBox="0 0 1024 1024" version="1.1" xmlns="http://www.w3.org/2000/svg" p-id="9829" xmlns:xlink="http://www.w3.org/1999/xlink" width="200" height="200"><defs><style type="text/css"></style></defs><path d="M943.604972 712.950731h-30.129205V118.411877h30.129205c8.033977 0 14.060227-6.02625 14.060227-14.060227s-6.025227-14.060227-14.060227-14.060228H525.557784V70.205968c0-8.033977-6.02625-14.060227-14.060227-14.060227s-14.060227 6.025227-14.060228 14.060227v18.076704H78.117149c-8.033977 0-14.060227 6.02625-14.060228 14.060228s7.030114 14.060227 14.060228 14.060227h30.128181v594.538854H78.117149c-8.033977 0-14.060227 6.025227-14.060228 14.060228 0 8.033977 7.030114 14.060227 14.060228 14.060227h314.874387L199.164039 934.898683c-6.02625 6.025227-6.02625 15.064091 0 20.085454 3.012613 3.012613 6.02625 4.0175 10.042727 4.0175s7.030114-1.003863 10.042727-4.0175L433.163467 741.071186h63.269999v162.694429c0 8.033977 7.030114 14.060227 14.060227 14.060227 8.033977 0 14.060227-6.025227 14.060227-14.060227V742.075049h63.269999l213.913975 213.913974c3.012613 3.012613 6.025227 4.0175 10.042727 4.017501s7.030114-1.003863 10.042727-4.017501c6.025227-6.025227 6.025227-15.064091 0-20.085454L631.008464 742.075049h313.601395c8.033977 0 14.060227-6.025227 14.060227-14.060227 0-9.038864-7.030114-15.064091-15.065114-15.064091z m-58.248636 0H136.366807V118.411877h748.990553V712.950731z" p-id="9830" fill="#ffffff"></path><path d="M624.982214 420.702668H502.458693V299.184033c0-8.033977-6.025227-14.060227-14.060227-14.060227-83.356476 0-150.642952 68.291362-150.642952 150.642952 0 83.356476 68.291362 151.647839 150.642952 151.647839 83.356476 0 150.642952-68.291362 150.642952-151.647839 0.001023-8.033977-7.02909-15.064091-14.059204-15.06409zM487.394602 558.290279c-67.287499 0-122.523521-55.236022-122.523521-122.523521 0-62.266136 47.202045-114.488521 107.459431-121.518634v121.518634c0 8.033977 6.025227 14.060227 14.060227 14.060227H607.909373c-6.025227 61.261249-57.244772 108.463294-120.514771 108.463294z" p-id="9831" fill="#ffffff"></path><path d="M535.600511 236.917898c-8.033977 0-14.060227 6.02625-14.060227 14.060227v136.583748c0 8.033977 6.025227 14.060227 14.060227 14.060227h136.583748c8.033977 0 14.060227-6.025227 14.060227-14.060227-0.001023-82.352613-67.287499-150.643975-150.643975-150.643975z m14.060227 136.582725v-106.454544c56.239885 6.02625 100.429317 51.218522 106.454544 106.454544h-106.454544z" p-id="9832" fill="#ffffff"></path></svg>