<?xml version="1.0" standalone="no"?><!DOCTYPE svg PUBLIC "-//W3C//DTD SVG 1.1//EN" "http://www.w3.org/Graphics/SVG/1.1/DTD/svg11.dtd"><svg t="1541739683396" class="icon" style="" viewBox="0 0 1024 1024" version="1.1" xmlns="http://www.w3.org/2000/svg" p-id="16357" xmlns:xlink="http://www.w3.org/1999/xlink" width="200" height="200"><defs><style type="text/css"></style></defs><path d="M959.81977 538.556842l-176.191838-82.157161c-5.479805-2.560312-11.900028-2.179642-17.060561 0.99977-5.15951 3.160993-8.359388 8.740058-8.538467 14.780635l-1.081635 36.918841c-45.557592 8.679683-139.53394 39.317471-203.15084 111.3746l15.619746-256.929674 57.797357 0.080841c9.620102 0 19.618826-1.860371 24.618701-12.520151 2.181689-4.660136 2.600221-15.579837-7.67889-30.178323-21.139459-29.979802-67.077721-92.15691-95.696526-125.134998-9.060353-10.43977-22.338774-22.419616-36.459377-22.419616-14.119579 0-26.738991 12.040221-35.878139 22.419616-28.258601 32.05916-75.137281 95.155197-96.275717 125.134998-10.280134 14.598486-9.860579 25.518187-7.679913 30.178323 4.999874 10.659781 14.999622 12.520151 24.618701 12.520151l57.797357-0.080841 15.619746 256.929674c-63.6169-72.057129-157.593248-102.694917-203.15084-111.3746l-1.080611-36.918841c-0.180102-6.040576-3.37998-11.619642-8.53949-14.780635-5.160533-3.179412-11.570523-3.560082-17.059538-0.99977l-176.203094 82.157161c-6.138814 2.838651-10.158361 8.919137-10.379395 15.717983-0.218988 6.759961 3.369747 13.0799 9.31925 16.359596l175.8521 96.656387c5.491061 3.039219 12.159948 2.978844 17.629519-0.159636 5.460362-3.140527 8.879228-8.880251 9.039887-15.159258l0.800225-31.778774c68.1174 6.239098 172.712597 45.297672 227.210815 213.271338 0.060375 0.559748 0.079818 1.099031 0.159636 1.658779 0.99977 7.080256 6.14086 12.519128 12.799514 14.499226 0.160659 0.040932 0.320295 0.080841 0.500397 0.12075 1.020236 0.280386 1.979074 0.700965 3.059686 0.799202 0.479931 0.039909 0.979304 0.039909 1.479701 0.039909 0.119727 0 0.23843-0.039909 0.35918-0.039909 0.12075 0 0.239454 0.039909 0.361227 0.039909 0.499373 0 0.980327 0 1.478677-0.039909 1.081635-0.099261 2.040473-0.518816 3.060709-0.799202 0.180102-0.039909 0.339738-0.079818 0.499373-0.12075 6.659677-1.980097 11.799744-7.41897 12.799514-14.499226 0.079818-0.559748 0.079818-1.099031 0.159636-1.658779 54.498218-167.973666 159.094438-207.03224 227.210815-213.271338l0.800225 31.778774c0.159636 6.28003 3.578502 12.018731 9.039887 15.159258 5.459339 3.13848 12.138458 3.198855 17.638729 0.159636l175.8521-96.656387c5.940292-3.279696 9.53926-9.599635 9.31925-16.359596C969.980177 547.475979 965.960631 541.396517 959.81977 538.556842z" p-id="16358" fill="#ffffff"></path></svg>