<?xml version="1.0" standalone="no"?><!DOCTYPE svg PUBLIC "-//W3C//DTD SVG 1.1//EN" "http://www.w3.org/Graphics/SVG/1.1/DTD/svg11.dtd"><svg t="1541747060210" class="icon" style="" viewBox="0 0 1024 1024" version="1.1" xmlns="http://www.w3.org/2000/svg" p-id="6440" xmlns:xlink="http://www.w3.org/1999/xlink" width="200" height="200"><defs><style type="text/css"></style></defs><path d="M661.894095 704.26819l-192.024381 69.241905 72.070096-189.19619 263.119238-263.119238c1.414095-1.414095 3.31581-2.82819 4.729904-4.242286v-16.091429L555.690667 32.475429H147.992381c-40.764952 0-73.97181 33.158095-73.97181 73.923047v803.108572c0 40.764952 33.158095 73.923048 73.97181 73.923047H735.817143c40.764952 0 73.97181-33.158095 73.971809-73.971809V556.373333l-147.894857 147.894857z m-477.379047-258.82819h186.270476c17.554286 0 32.231619 14.628571 32.231619 32.182857 0 18.041905-14.677333 32.280381-32.182857 32.280381H184.417524a32.572952 32.572952 0 0 1-32.182857-32.231619c0-17.554286 14.628571-32.231619 32.182857-32.231619z m0 112.347429h186.270476c17.554286 0 32.231619 14.677333 32.231619 32.182857 0 18.041905-14.677333 32.280381-32.182857 32.280381H184.417524a32.572952 32.572952 0 0 1-32.182857-32.231619c0-17.554286 14.628571-32.231619 32.182857-32.231619z m0 104.740571h186.270476c17.554286 0 32.231619 14.726095 32.231619 32.231619 0 18.041905-14.677333 32.231619-32.182857 32.231619H184.417524a32.572952 32.572952 0 0 1-32.182857-32.182857c0-17.554286 14.628571-32.280381 32.182857-32.280381z m483.523047 208.11581H184.027429a32.572952 32.572952 0 0 1-32.231619-32.182858c0-17.554286 14.677333-32.280381 32.182857-32.280381H668.038095c17.554286 0 32.231619 14.677333 32.231619 32.231619 0 18.041905-14.238476 32.231619-32.231619 32.23162zM525.799619 726.064762l45.056-119.466667 7.119238-7.119238 74.898286 74.898286-6.631619 7.119238-120.441905 44.568381z m77.287619-151.698286l187.245714-187.245714 74.898286 74.898286-187.245714 187.245714-74.898286-74.898286z m312.417524-212.845714a34.767238 34.767238 0 0 1-0.487619 49.737143l-25.6 25.648762-74.898286-74.947048 25.6-25.6a35.791238 35.791238 0 0 1 50.224762 0l25.161143 25.161143z" p-id="6441" fill="#ffffff"></path></svg>