<?xml version="1.0" standalone="no"?><!DOCTYPE svg PUBLIC "-//W3C//DTD SVG 1.1//EN" "http://www.w3.org/Graphics/SVG/1.1/DTD/svg11.dtd"><svg t="1541738853839" class="icon" style="" viewBox="0 0 1024 1024" version="1.1" xmlns="http://www.w3.org/2000/svg" p-id="7557" xmlns:xlink="http://www.w3.org/1999/xlink" width="200" height="200"><defs><style type="text/css"></style></defs><path d="M512 512m-512 0a512 512 0 1 0 1024 0 512 512 0 1 0-1024 0Z" fill="#EAAC46" p-id="7558"></path><path d="M749.47968 213.76128H274.592c-22.42304 0-39.58784 16.87552-39.58784 38.91712v518.64192c0 22.04416 17.1648 38.91712 39.58784 38.91712h474.816c22.4192 0 39.58784-16.87552 39.58784-38.91712V252.6784c-0.00128-22.0416-17.09312-38.91712-39.51616-38.91712zM360.34944 669.56032c-14.50368 0-26.41408-11.6416-26.41408-25.9712 0-14.25792 11.84-25.96736 26.41408-25.96736 14.50112 0 26.41408 11.6416 26.41408 25.96736 0 14.25664-11.91168 25.9712-26.41408 25.9712z m0-127.08224c-14.50368 0-26.41408-11.63904-26.41408-25.96608 0-14.25408 11.84-25.96992 26.41408-25.96992 14.50112 0 26.41408 11.64032 26.41408 25.96992 0 14.25536-11.91168 25.96608-26.41408 25.96608z m0-127.73248c-14.50368 0-26.41408-11.63904-26.41408-25.96736 0-14.25664 11.84-25.96736 26.41408-25.96736 14.50112 0 26.41408 11.6352 26.41408 25.96736 0 14.32704-11.91168 25.96736-26.41408 25.96736z m312.62464 241.86496H435.52896c-7.92064 0-13.17376-6.47168-13.17376-12.94592 0-7.78496 5.25312-12.94976 13.17376-12.94976h237.44512c6.58688 0 13.1712 5.1648 13.1712 12.94976 0 6.39872-6.58688 12.94592-13.1712 12.94592z m0-127.08224H435.52896c-7.92064 0-13.17376-6.47296-13.17376-12.9472 0-6.4704 5.25312-12.94336 13.17376-12.94336h237.44512c6.58688 0 13.1712 6.47424 13.1712 12.94336 0 6.47552-6.58688 12.9472-13.1712 12.9472z m0-127.72992H435.52896c-7.92064 0-13.17376-5.16352-13.17376-12.94848 0-7.7824 5.25312-12.94848 13.17376-12.94848h237.44512c6.58688 0 13.1712 5.16608 13.1712 12.94848 0 7.71072-6.58688 12.94848-13.1712 12.94848z" fill="#F7F8F8" p-id="7559"></path></svg>